<?xml version="1.0" encoding="UTF-8"?>
<svg version="1.1" xmlns="http://www.w3.org/2000/svg" width="980" height="980">
<path d="M0 0 C323.4 0 646.8 0 980 0 C980 323.4 980 646.8 980 980 C656.6 980 333.2 980 0 980 C0 656.6 0 333.2 0 0 Z " fill="#FEFEFE" transform="translate(0,0)"/>
<path d="M0 0 C2.13708467 -0.00218516 4.27365083 -0.02038867 6.41064453 -0.03930664 C13.90649596 -0.07114171 20.98673687 0.26302845 28.27392578 2.18530273 C29.02915527 2.37294189 29.78438477 2.56058105 30.5625 2.75390625 C54.84219212 8.94504527 75.49852426 19.80732603 95.27392578 35.18530273 C96.19173828 35.89557617 97.10955078 36.60584961 98.05517578 37.33764648 C122.96049568 57.12592508 139.87960103 83.48704901 148.27392578 114.18530273 C148.64775391 115.35706055 149.02158203 116.52881836 149.40673828 117.73608398 C152.60554324 128.71392149 152.48654615 139.51147699 152.38330078 150.83764648 C152.37450558 152.52445068 152.36652385 154.21125932 152.359375 155.89807129 C152.34026833 159.99392666 152.3101605 164.08956455 152.27392578 168.18530273 C153.32913422 168.17642029 154.38434265 168.16753784 155.4715271 168.15838623 C165.44589731 168.0770819 175.42019973 168.01723276 185.39482689 167.97805405 C190.52214817 167.95723427 195.6492006 167.92901959 200.77636719 167.88354492 C205.73010503 167.8398865 210.68358528 167.81612349 215.63750076 167.80579376 C217.52163367 167.79843816 219.40575346 167.78407478 221.28977585 167.76238251 C242.37012059 167.52945636 242.37012059 167.52945636 250.67626953 174.07983398 C257.91343373 183.12168544 259.36705005 191.53186307 259.52001953 202.95092773 C259.55301537 204.66447341 259.58622585 206.37801495 259.61962891 208.09155273 C259.66645998 210.74321067 259.71081702 213.39485956 259.75073242 216.04663086 C259.79152729 218.63991433 259.84282831 221.23285155 259.89501953 223.82592773 C259.90764076 224.95831879 259.90764076 224.95831879 259.92051697 226.11358643 C260.04313765 231.83717103 260.60302496 237.46891847 261.23681641 243.15332031 C262.20943879 251.9496392 262.76306362 260.71982354 263.13989067 269.55974007 C263.33015806 274.01213704 263.54050461 278.463618 263.74707031 282.9152832 C263.81071415 284.30374938 263.81071415 284.30374938 263.87564373 285.72026539 C264.34663207 295.93172324 264.89846644 306.13850415 265.45751953 316.34545898 C265.55994396 318.22327581 265.66235069 320.10109361 265.76473999 321.97891235 C266.0256019 326.75616057 266.28771508 331.53333938 266.55015564 336.3105011 C266.99195977 344.35732228 267.43160406 352.40426203 267.87144089 360.45119095 C267.98056146 362.44724439 268.08973521 364.44329493 268.19896317 366.4393425 C268.85201842 378.37540511 269.49714504 390.31181857 270.1223774 402.24937248 C270.22886203 404.28203051 270.33568378 406.31467054 270.44261169 408.3473053 C270.75617992 414.3127513 271.06721503 420.27830557 271.37329102 426.24414062 C271.48066485 428.29224312 271.5881594 430.34033929 271.69580078 432.38842773 C271.74037918 433.27982956 271.78495758 434.17123138 271.83088684 435.08964539 C272.03044564 438.8377324 272.2880948 442.54204822 272.78540039 446.26318359 C273.30492538 450.43418257 273.5247455 454.53944427 273.66845703 458.73608398 C273.73497391 460.45257319 273.80197507 462.16904367 273.86938477 463.88549805 C273.92169754 465.24946716 273.92169754 465.24946716 273.97506714 466.64099121 C274.72052544 485.76509171 275.86820883 504.84459818 277.21142578 523.93530273 C282.52613073 600.12435042 282.52613073 600.12435042 282.58642578 633.74780273 C282.59001099 634.55076782 282.59359619 635.35373291 282.59729004 636.18103027 C282.64183583 654.3282272 278.11157322 666.24586672 265.33642578 679.23608398 C253.74767643 690.58459626 238.65439689 696.34962666 222.47442818 696.32231712 C221.70408863 696.32496895 220.93374908 696.32762078 220.14006591 696.33035296 C217.55553328 696.33802005 214.97104836 696.33860414 212.38650513 696.33920288 C210.51594479 696.34321921 208.64538531 696.34765772 206.77482688 696.35248244 C201.63155734 696.36443478 196.48829718 696.37009329 191.34501648 696.37466359 C185.79874559 696.38062478 180.25248588 696.39223335 174.70622253 696.4029541 C161.30994144 696.42746648 147.91365665 696.44210366 134.51736003 696.45501417 C130.73274338 696.45872699 126.94812709 696.46270015 123.1635108 696.46676683 C99.65442181 696.49200452 76.14533183 696.51407051 52.63623238 696.52649498 C47.19189578 696.52941612 41.7475592 696.53238368 36.30322266 696.53540039 C35.62685869 696.5357713 34.95049473 696.53614221 34.25363489 696.53652436 C12.33720697 696.54867279 -9.57914051 696.57960657 -31.49553067 696.62132191 C-54.681915 696.66537379 -77.86825367 696.69103516 -101.05468571 696.69641554 C-113.68772592 696.69982661 -126.32063922 696.71154606 -138.95363998 696.74451828 C-149.71392852 696.77255692 -160.47406414 696.78350131 -171.23438637 696.77232282 C-176.72095441 696.767146 -182.2072024 696.76995971 -187.69372368 696.79478836 C-192.72518404 696.81736683 -197.75609603 696.81647434 -202.78756656 696.79758449 C-204.59924217 696.79479651 -206.41095566 696.8003154 -208.22257064 696.81539743 C-226.94658364 696.9616363 -243.54463191 692.81399012 -257.49169922 679.55639648 C-266.72607422 669.56241967 -266.72607422 669.56241967 -266.72607422 664.18530273 C-267.38607422 664.18530273 -268.04607422 664.18530273 -268.72607422 664.18530273 C-269.37611047 661.9782029 -270.02092167 659.76956381 -270.66357422 657.56030273 C-271.20304688 655.7156543 -271.20304688 655.7156543 -271.75341797 653.83374023 C-273.64625355 646.73370635 -273.87297308 640.11050983 -273.85888672 632.80249023 C-273.85984344 631.71066437 -273.86080017 630.6188385 -273.86178589 629.493927 C-273.86246471 627.19264671 -273.86063121 624.89136448 -273.85644531 622.59008789 C-273.85108257 619.06579301 -273.85640571 615.54162497 -273.86279297 612.01733398 C-273.86213234 609.77905245 -273.86085148 607.540771 -273.85888672 605.30249023 C-273.86091095 604.24826874 -273.86293518 603.19404724 -273.86502075 602.10787964 C-273.86186859 601.12651031 -273.85871643 600.14514099 -273.85546875 599.1340332 C-273.85467316 598.27276825 -273.85387756 597.4115033 -273.85305786 596.5241394 C-273.73069566 594.27042226 -273.32271494 592.35404441 -272.72607422 590.18530273 C-272.27300353 586.0290084 -272.01664674 581.85580677 -271.72607422 577.68530273 C-271.63777344 576.44296875 -271.54947266 575.20063477 -271.45849609 573.9206543 C-270.78856331 564.07264241 -270.41598016 554.23105087 -270.1184082 544.3659668 C-269.88973562 537.35722489 -269.45593029 530.41473494 -268.78857422 523.43530273 C-267.42681629 509.0403019 -267.02270771 494.58855286 -266.51147461 480.14331055 C-266.15479103 470.43392491 -265.65910963 460.77029017 -264.79223633 451.09228516 C-263.66096148 437.96525151 -262.86311925 424.82662908 -262.10498047 411.67358398 C-261.95832798 409.16683041 -261.81142536 406.66009145 -261.66429138 404.15336609 C-261.27977307 397.58998582 -260.89885346 391.02640154 -260.51867676 384.46276855 C-260.21637808 379.25376942 -259.91155743 374.04491944 -259.60657692 368.83607674 C-258.34055018 347.21195309 -257.0812465 325.58748141 -255.87011719 303.96020508 C-255.76740021 302.12946898 -255.76740021 302.12946898 -255.66260815 300.26174831 C-255.33927202 294.49634217 -255.01762394 288.73085236 -254.69935608 282.96516418 C-254.21009233 274.16996744 -253.71752197 265.38521407 -252.93287659 256.61036682 C-252.60029091 252.71030715 -252.40925863 248.80571826 -252.22607422 244.89624023 C-252.18546875 244.06806793 -252.14486328 243.23989563 -252.10302734 242.3866272 C-251.97544677 239.7779418 -251.85060548 237.1691353 -251.72607422 234.56030273 C-251.43821349 228.60405948 -251.14696133 222.64799523 -250.84997559 216.69219971 C-250.76685542 215.01042889 -250.68524958 213.3285826 -250.60510254 211.64666748 C-250.48831595 209.20618349 -250.3656327 206.7660579 -250.24169922 204.32592773 C-250.20834473 203.60158539 -250.17499023 202.87724304 -250.140625 202.13095093 C-249.51366199 190.16892539 -246.65571801 180.55133141 -237.78857422 172.31030273 C-232.39334444 167.54654748 -226.69023154 166.88907636 -219.70117188 166.95825195 C-218.92001007 166.9579599 -218.13884827 166.95766785 -217.33401489 166.95736694 C-214.76927319 166.95875281 -212.20482725 166.97427875 -209.64013672 166.98999023 C-207.85509398 166.99372301 -206.07004919 166.99656873 -204.28500366 166.99856567 C-199.59965299 167.0061813 -194.91442742 167.02581194 -190.22912598 167.04797363 C-185.44296969 167.06847674 -180.65679307 167.07757693 -175.87060547 167.08764648 C-166.48904026 167.10905984 -157.10756767 167.14317071 -147.72607422 167.18530273 C-147.73425674 166.21523788 -147.74243927 165.24517303 -147.75086975 164.24571228 C-147.77948487 160.59290382 -147.79720974 156.94010494 -147.81190491 153.28721619 C-147.81968725 151.71629664 -147.83029195 150.14538813 -147.84394836 148.57450867 C-148.15247509 112.13133232 -133.95867338 76.76466079 -108.72607422 50.18530273 C-106.77979029 48.44001816 -104.76510647 46.8253939 -102.72607422 45.18530273 C-101.61232422 44.07155273 -101.61232422 44.07155273 -100.47607422 42.93530273 C-88.69336473 31.15259325 -75.49792242 22.79104601 -60.72607422 15.18530273 C-60.13068848 14.87302734 -59.53530273 14.56075195 -58.921875 14.23901367 C-54.25551385 11.83578642 -49.56216606 9.89044236 -44.60107422 8.18530273 C-43.86896729 7.93111572 -43.13686035 7.67692871 -42.38256836 7.41503906 C-28.06275271 2.50631855 -15.16382132 -0.00173301 0 0 Z " fill="#FEFEFE" transform="translate(485.72607421875,141.814697265625)"/>
<path d="M0 0 C2.13708467 -0.00218516 4.27365083 -0.02038867 6.41064453 -0.03930664 C13.90649596 -0.07114171 20.98673687 0.26302845 28.27392578 2.18530273 C29.02915527 2.37294189 29.78438477 2.56058105 30.5625 2.75390625 C54.84219212 8.94504527 75.49852426 19.80732603 95.27392578 35.18530273 C96.19173828 35.89557617 97.10955078 36.60584961 98.05517578 37.33764648 C122.96049568 57.12592508 139.87960103 83.48704901 148.27392578 114.18530273 C148.64775391 115.35706055 149.02158203 116.52881836 149.40673828 117.73608398 C152.60554324 128.71392149 152.48654615 139.51147699 152.38330078 150.83764648 C152.37450558 152.52445068 152.36652385 154.21125932 152.359375 155.89807129 C152.34026833 159.99392666 152.3101605 164.08956455 152.27392578 168.18530273 C153.32913422 168.17642029 154.38434265 168.16753784 155.4715271 168.15838623 C165.44589731 168.0770819 175.42019973 168.01723276 185.39482689 167.97805405 C190.52214817 167.95723427 195.6492006 167.92901959 200.77636719 167.88354492 C205.73010503 167.8398865 210.68358528 167.81612349 215.63750076 167.80579376 C217.52163367 167.79843816 219.40575346 167.78407478 221.28977585 167.76238251 C242.37012059 167.52945636 242.37012059 167.52945636 250.67626953 174.07983398 C257.91343373 183.12168544 259.36705005 191.53186307 259.52001953 202.95092773 C259.55301537 204.66447341 259.58622585 206.37801495 259.61962891 208.09155273 C259.66645998 210.74321067 259.71081702 213.39485956 259.75073242 216.04663086 C259.79152729 218.63991433 259.84282831 221.23285155 259.89501953 223.82592773 C259.90764076 224.95831879 259.90764076 224.95831879 259.92051697 226.11358643 C260.04313765 231.83717103 260.60302496 237.46891847 261.23681641 243.15332031 C262.20943879 251.9496392 262.76306362 260.71982354 263.13989067 269.55974007 C263.33015806 274.01213704 263.54050461 278.463618 263.74707031 282.9152832 C263.81071415 284.30374938 263.81071415 284.30374938 263.87564373 285.72026539 C264.34663207 295.93172324 264.89846644 306.13850415 265.45751953 316.34545898 C265.55994396 318.22327581 265.66235069 320.10109361 265.76473999 321.97891235 C266.0256019 326.75616057 266.28771508 331.53333938 266.55015564 336.3105011 C266.99195977 344.35732228 267.43160406 352.40426203 267.87144089 360.45119095 C267.98056146 362.44724439 268.08973521 364.44329493 268.19896317 366.4393425 C268.85201842 378.37540511 269.49714504 390.31181857 270.1223774 402.24937248 C270.22886203 404.28203051 270.33568378 406.31467054 270.44261169 408.3473053 C270.75617992 414.3127513 271.06721503 420.27830557 271.37329102 426.24414062 C271.48066485 428.29224312 271.5881594 430.34033929 271.69580078 432.38842773 C271.74037918 433.27982956 271.78495758 434.17123138 271.83088684 435.08964539 C272.03044564 438.8377324 272.2880948 442.54204822 272.78540039 446.26318359 C273.30492538 450.43418257 273.5247455 454.53944427 273.66845703 458.73608398 C273.73497391 460.45257319 273.80197507 462.16904367 273.86938477 463.88549805 C273.92169754 465.24946716 273.92169754 465.24946716 273.97506714 466.64099121 C274.72052544 485.76509171 275.86820883 504.84459818 277.21142578 523.93530273 C282.52613073 600.12435042 282.52613073 600.12435042 282.58642578 633.74780273 C282.59001099 634.55076782 282.59359619 635.35373291 282.59729004 636.18103027 C282.64183583 654.3282272 278.11157322 666.24586672 265.33642578 679.23608398 C253.74767643 690.58459626 238.65439689 696.34962666 222.47442818 696.32231712 C221.70408863 696.32496895 220.93374908 696.32762078 220.14006591 696.33035296 C217.55553328 696.33802005 214.97104836 696.33860414 212.38650513 696.33920288 C210.51594479 696.34321921 208.64538531 696.34765772 206.77482688 696.35248244 C201.63155734 696.36443478 196.48829718 696.37009329 191.34501648 696.37466359 C185.79874559 696.38062478 180.25248588 696.39223335 174.70622253 696.4029541 C161.30994144 696.42746648 147.91365665 696.44210366 134.51736003 696.45501417 C130.73274338 696.45872699 126.94812709 696.46270015 123.1635108 696.46676683 C99.65442181 696.49200452 76.14533183 696.51407051 52.63623238 696.52649498 C47.19189578 696.52941612 41.7475592 696.53238368 36.30322266 696.53540039 C35.62685869 696.5357713 34.95049473 696.53614221 34.25363489 696.53652436 C12.33720697 696.54867279 -9.57914051 696.57960657 -31.49553067 696.62132191 C-54.681915 696.66537379 -77.86825367 696.69103516 -101.05468571 696.69641554 C-113.68772592 696.69982661 -126.32063922 696.71154606 -138.95363998 696.74451828 C-149.71392852 696.77255692 -160.47406414 696.78350131 -171.23438637 696.77232282 C-176.72095441 696.767146 -182.2072024 696.76995971 -187.69372368 696.79478836 C-192.72518404 696.81736683 -197.75609603 696.81647434 -202.78756656 696.79758449 C-204.59924217 696.79479651 -206.41095566 696.8003154 -208.22257064 696.81539743 C-226.94658364 696.9616363 -243.54463191 692.81399012 -257.49169922 679.55639648 C-266.72607422 669.56241967 -266.72607422 669.56241967 -266.72607422 664.18530273 C-267.38607422 664.18530273 -268.04607422 664.18530273 -268.72607422 664.18530273 C-269.37611047 661.9782029 -270.02092167 659.76956381 -270.66357422 657.56030273 C-271.20304688 655.7156543 -271.20304688 655.7156543 -271.75341797 653.83374023 C-273.64625355 646.73370635 -273.87297308 640.11050983 -273.85888672 632.80249023 C-273.85984344 631.71066437 -273.86080017 630.6188385 -273.86178589 629.493927 C-273.86246471 627.19264671 -273.86063121 624.89136448 -273.85644531 622.59008789 C-273.85108257 619.06579301 -273.85640571 615.54162497 -273.86279297 612.01733398 C-273.86213234 609.77905245 -273.86085148 607.540771 -273.85888672 605.30249023 C-273.86091095 604.24826874 -273.86293518 603.19404724 -273.86502075 602.10787964 C-273.86186859 601.12651031 -273.85871643 600.14514099 -273.85546875 599.1340332 C-273.85467316 598.27276825 -273.85387756 597.4115033 -273.85305786 596.5241394 C-273.73069566 594.27042226 -273.32271494 592.35404441 -272.72607422 590.18530273 C-272.27300353 586.0290084 -272.01664674 581.85580677 -271.72607422 577.68530273 C-271.63777344 576.44296875 -271.54947266 575.20063477 -271.45849609 573.9206543 C-270.78856331 564.07264241 -270.41598016 554.23105087 -270.1184082 544.3659668 C-269.88973562 537.35722489 -269.45593029 530.41473494 -268.78857422 523.43530273 C-267.42681629 509.0403019 -267.02270771 494.58855286 -266.51147461 480.14331055 C-266.15479103 470.43392491 -265.65910963 460.77029017 -264.79223633 451.09228516 C-263.66096148 437.96525151 -262.86311925 424.82662908 -262.10498047 411.67358398 C-261.95832798 409.16683041 -261.81142536 406.66009145 -261.66429138 404.15336609 C-261.27977307 397.58998582 -260.89885346 391.02640154 -260.51867676 384.46276855 C-260.21637808 379.25376942 -259.91155743 374.04491944 -259.60657692 368.83607674 C-258.34055018 347.21195309 -257.0812465 325.58748141 -255.87011719 303.96020508 C-255.76740021 302.12946898 -255.76740021 302.12946898 -255.66260815 300.26174831 C-255.33927202 294.49634217 -255.01762394 288.73085236 -254.69935608 282.96516418 C-254.21009233 274.16996744 -253.71752197 265.38521407 -252.93287659 256.61036682 C-252.60029091 252.71030715 -252.40925863 248.80571826 -252.22607422 244.89624023 C-252.18546875 244.06806793 -252.14486328 243.23989563 -252.10302734 242.3866272 C-251.97544677 239.7779418 -251.85060548 237.1691353 -251.72607422 234.56030273 C-251.43821349 228.60405948 -251.14696133 222.64799523 -250.84997559 216.69219971 C-250.76685542 215.01042889 -250.68524958 213.3285826 -250.60510254 211.64666748 C-250.48831595 209.20618349 -250.3656327 206.7660579 -250.24169922 204.32592773 C-250.20834473 203.60158539 -250.17499023 202.87724304 -250.140625 202.13095093 C-249.51366199 190.16892539 -246.65571801 180.55133141 -237.78857422 172.31030273 C-232.39334444 167.54654748 -226.69023154 166.88907636 -219.70117188 166.95825195 C-218.92001007 166.9579599 -218.13884827 166.95766785 -217.33401489 166.95736694 C-214.76927319 166.95875281 -212.20482725 166.97427875 -209.64013672 166.98999023 C-207.85509398 166.99372301 -206.07004919 166.99656873 -204.28500366 166.99856567 C-199.59965299 167.0061813 -194.91442742 167.02581194 -190.22912598 167.04797363 C-185.44296969 167.06847674 -180.65679307 167.07757693 -175.87060547 167.08764648 C-166.48904026 167.10905984 -157.10756767 167.14317071 -147.72607422 167.18530273 C-147.73425674 166.21523788 -147.74243927 165.24517303 -147.75086975 164.24571228 C-147.77948487 160.59290382 -147.79720974 156.94010494 -147.81190491 153.28721619 C-147.81968725 151.71629664 -147.83029195 150.14538813 -147.84394836 148.57450867 C-148.15247509 112.13133232 -133.95867338 76.76466079 -108.72607422 50.18530273 C-106.77979029 48.44001816 -104.76510647 46.8253939 -102.72607422 45.18530273 C-101.61232422 44.07155273 -101.61232422 44.07155273 -100.47607422 42.93530273 C-88.69336473 31.15259325 -75.49792242 22.79104601 -60.72607422 15.18530273 C-60.13068848 14.87302734 -59.53530273 14.56075195 -58.921875 14.23901367 C-54.25551385 11.83578642 -49.56216606 9.89044236 -44.60107422 8.18530273 C-43.86896729 7.93111572 -43.13686035 7.67692871 -42.38256836 7.41503906 C-28.06275271 2.50631855 -15.16382132 -0.00173301 0 0 Z M-204.72607422 214.18530273 C-206.45774706 217.64864841 -206.31923487 221.63254971 -206.62841797 225.45092773 C-206.71300766 226.48332581 -206.79759735 227.51572388 -206.88475037 228.57940674 C-208.29450072 246.64781177 -209.15086253 264.75844736 -210.1229248 282.85437012 C-210.56078048 290.99809844 -211.00342276 299.14156486 -211.44816399 307.28491974 C-211.60099353 310.09633493 -211.75150824 312.90786681 -211.90174866 315.71942139 C-212.3318895 323.68417442 -212.81272907 331.62923438 -213.51603699 339.57546997 C-213.86409426 343.90028077 -214.01151671 348.22858532 -214.15576172 352.56420898 C-214.22772088 354.5373677 -214.30008493 356.51051168 -214.37280273 358.48364258 C-214.40979279 359.50528503 -214.44678284 360.52692749 -214.4848938 361.57952881 C-215.13940205 379.42815954 -216.01141823 397.24497601 -217.28857422 415.06030273 C-217.35260437 415.95605011 -217.41663452 416.85179749 -217.48260498 417.77468872 C-218.54855303 432.56305072 -218.54855303 432.56305072 -219.25732422 439.53686523 C-220.01278888 447.5678335 -220.21522175 455.64289907 -220.54174805 463.70010376 C-221.64178724 490.65519749 -221.64178724 490.65519749 -222.72607422 503.99780273 C-223.60544863 514.84428002 -224.19982271 525.69212106 -224.72607422 536.56030273 C-224.78745071 537.82434433 -224.78745071 537.82434433 -224.85006714 539.11392212 C-225.01610191 542.53770889 -225.18167215 545.96151766 -225.34654236 549.38536072 C-225.76299151 558.0111545 -226.20241905 566.63565164 -226.66040039 575.25933838 C-226.74487472 576.85819615 -226.82823474 578.45711323 -226.91040039 580.05609131 C-227.02457932 582.27640062 -227.14244354 584.4964858 -227.26123047 586.71655273 C-227.32705322 587.97016602 -227.39287598 589.2237793 -227.46069336 590.51538086 C-227.744196 594.43590682 -228.22476261 598.28704381 -228.72607422 602.18530273 C-229.55440455 612.10359817 -229.82564032 622.11091599 -229.97607422 632.06030273 C-230.00809937 633.15544189 -230.00809937 633.15544189 -230.04077148 634.27270508 C-230.07114661 639.00570213 -229.5026922 642.31383945 -226.72607422 646.18530273 C-221.7237199 648.7831118 -217.91504183 649.58061484 -212.21188354 649.68740845 C-211.45506955 649.70465273 -210.69825556 649.72189701 -209.91850781 649.73966384 C-207.29043952 649.79393681 -204.66262669 649.82525121 -202.03417969 649.85571289 C-200.04176108 649.88844408 -198.04934941 649.92159982 -196.05694389 649.95511818 C-159.0707433 650.51729992 -122.07014218 650.41363083 -85.08074504 650.45501417 C-81.7867188 650.4587512 -78.49269292 650.46272176 -75.19866705 650.46676683 C-54.63605072 650.49194139 -34.07343336 650.5139378 -13.51080513 650.52649498 C-8.7970797 650.52942313 -4.08335429 650.53238513 0.63037109 650.53540039 C1.80149606 650.53614644 2.97262103 650.53689249 4.17923464 650.53766115 C23.26983638 650.55039264 42.36034669 650.5837573 61.45090543 650.62520222 C81.13721693 650.66758687 100.82348122 650.6911826 120.50983822 650.69641554 C131.53012981 650.69982476 142.55027597 650.71153036 153.57052231 650.74451828 C162.91959661 650.77246622 172.26849526 650.78353894 181.61760812 650.77232282 C186.38248647 650.76713075 191.14699635 650.7700616 195.91182137 650.79478836 C200.27267601 650.81723227 204.63289627 650.81657955 208.99376167 650.79758449 C210.56991628 650.79477851 212.14611352 650.80041626 213.72219943 650.81539743 C224.40409942 650.99754741 224.40409942 650.99754741 233.88675416 646.55064642 C236.01746892 644.45345967 237.20883906 642.78875811 237.53172302 639.79512024 C237.53358109 638.84662704 237.53543915 637.89813385 237.53735352 636.92089844 C237.54292015 635.2946479 237.54292015 635.2946479 237.54859924 633.63554382 C237.53445229 631.8599987 237.53445229 631.8599987 237.52001953 630.04858398 C237.5144957 628.80893387 237.50897186 627.56928375 237.50328064 626.29206848 C237.36304587 611.98751002 236.44945161 597.73714491 235.47796631 583.46905518 C235.23981467 579.94196673 235.01228839 576.41419286 234.78369141 572.88647461 C234.44613389 567.69689108 234.10355338 562.50768306 233.75463867 557.31884766 C233.63731636 555.57337898 233.63731636 555.57337898 233.5176239 553.79264832 C233.34617183 551.2547261 233.17346328 548.71690904 232.99958801 546.17915344 C232.86540718 544.20413094 232.86540718 544.20413094 232.72851562 542.18920898 C232.6473349 541.00359375 232.56615417 539.81797852 232.48251343 538.59643555 C232.14439846 533.06708093 231.99308595 527.53472325 231.83642578 521.99780273 C231.43988554 509.41239053 230.80143578 496.85113028 230.07495117 484.28100586 C229.98626891 482.74520199 229.89764636 481.20939466 229.80908203 479.67358398 C229.76469498 478.90458771 229.72030792 478.13559143 229.67457581 477.34329224 C229.34631701 471.59785125 229.05108337 465.85120115 228.77001953 460.10327148 C227.80464749 439.71952358 227.80464749 439.71952358 226.27392578 419.37280273 C225.19049038 407.22532083 224.78898507 395.05626345 224.33642578 382.87280273 C223.64860908 364.38140669 222.77685176 345.90892072 221.71142578 327.43530273 C221.64730499 326.30353607 221.5831842 325.17176941 221.51712036 324.00570679 C221.33459839 320.79969795 221.14711703 317.59402512 220.95751953 314.38842773 C220.87635391 312.96682091 220.87635391 312.96682091 220.79354858 311.51649475 C220.71313828 310.19481544 220.71313828 310.19481544 220.63110352 308.84643555 C220.58606186 308.08679504 220.5410202 307.32715454 220.49461365 306.54449463 C220.23234387 303.7407848 219.7368651 300.96293867 219.27392578 298.18530273 C217.29392578 256.60530273 217.29392578 256.60530273 215.27392578 214.18530273 C76.67392578 214.18530273 -61.92607422 214.18530273 -204.72607422 214.18530273 Z " fill="#020202" transform="translate(485.72607421875,141.814697265625)"/>
<path d="M0 0 C7.26054435 5.69577186 11.31332584 11.84428205 15.390625 20.08984375 C16.13892578 21.56227539 16.13892578 21.56227539 16.90234375 23.06445312 C18.37114034 25.96177904 19.81912016 28.86883937 21.265625 31.77734375 C21.9457666 33.11998291 21.9457666 33.11998291 22.63964844 34.48974609 C25.02112134 39.19658391 27.23215541 43.91072551 29.265625 48.77734375 C30.31893117 51.20724807 31.40250443 53.62425168 32.515625 56.02734375 C33.32773437 57.82945312 33.32773437 57.82945312 34.15625 59.66796875 C36.71372418 63.43787513 38.96232209 64.74316444 43.265625 65.77734375 C47.31307648 66.46360262 51.36807744 66.88316202 55.453125 67.27734375 C57.78280546 67.526286 60.11223209 67.77761443 62.44140625 68.03125 C63.59334473 68.15516113 64.7452832 68.27907227 65.93212891 68.40673828 C101.81063384 72.39557456 101.81063384 72.39557456 112.640625 84.21484375 C117.91866783 90.92713735 117.50521352 97.55147107 117.265625 105.77734375 C116.605625 105.77734375 115.945625 105.77734375 115.265625 105.77734375 C115.224375 106.43734375 115.183125 107.09734375 115.140625 107.77734375 C113.04066258 114.97721491 106.73379191 120.60349474 101.51171875 125.76171875 C100.8883815 126.38459778 100.26504425 127.00747681 99.62281799 127.64923096 C98.31675729 128.95229566 97.00829255 130.25295497 95.69750977 131.55126953 C93.69941343 133.53102124 91.70952374 135.51874699 89.72070312 137.5078125 C88.4431803 138.78042189 87.16520121 140.05257343 85.88671875 141.32421875 C85.2970079 141.91281677 84.70729706 142.50141479 84.09971619 143.10784912 C80.96030783 146.21154619 77.76837706 149.07735432 74.265625 151.77734375 C71.29943148 154.36391597 68.72726742 156.86376144 67.78125 160.78515625 C67.4954082 168.98881582 69.51539322 177.44443383 70.88525391 185.50634766 C71.40197632 188.59142592 71.86610469 191.68365576 72.328125 194.77734375 C72.76210543 197.68027168 73.21642621 200.54797561 73.83203125 203.41796875 C75.82704817 212.73734848 77.73147514 223.45690945 73.60546875 232.359375 C69.08392358 238.82669975 64.01724462 243.75324795 56.265625 245.77734375 C40.43255159 248.15734714 27.07301773 239.32683859 13.69970703 232.09130859 C9.79646986 229.98426522 5.87418533 227.91346482 1.953125 225.83984375 C1.26637695 225.4747168 0.57962891 225.10958984 -0.12792969 224.73339844 C-8.90929342 219.53476449 -8.90929342 219.53476449 -18.734375 218.77734375 C-21.7065991 220.27938656 -24.50210293 221.98118815 -27.3359375 223.73046875 C-30.83011926 225.83501041 -34.39415175 227.71950037 -38.046875 229.52734375 C-38.69414551 229.84775635 -39.34141602 230.16816895 -40.00830078 230.49829102 C-46.33597398 233.60838942 -52.69099754 236.6629135 -59.046875 239.71484375 C-60.56051636 240.4423584 -60.56051636 240.4423584 -62.10473633 241.18457031 C-63.0511499 241.63670898 -63.99756348 242.08884766 -64.97265625 242.5546875 C-65.81868408 242.95937256 -66.66471191 243.36405762 -67.53637695 243.78100586 C-73.88279289 246.65779398 -80.85237985 246.93598665 -87.53515625 244.94140625 C-94.4321288 241.82259317 -98.5343235 237.36142319 -101.78540039 230.58740234 C-105.87356418 218.48172568 -101.58791113 203.28870352 -99.296875 191.15234375 C-98.96680112 189.34919543 -98.63801846 187.54581025 -98.31054688 185.7421875 C-97.71182097 182.45207417 -97.10541791 179.16358415 -96.49047852 175.87646484 C-96.36013214 175.1665741 -96.22978577 174.45668335 -96.0954895 173.72528076 C-95.78633364 172.05762094 -95.46106867 170.39296129 -95.13256836 168.72900391 C-95.00116455 167.75495605 -94.86976074 166.7809082 -94.734375 165.77734375 C-94.55640381 164.50560303 -94.37843262 163.2338623 -94.19506836 161.92358398 C-94.27923427 157.15425312 -96.7757405 154.84786213 -100.04359436 151.61305237 C-100.80909103 150.89512009 -101.57458771 150.17718781 -102.36328125 149.4375 C-103.14573715 148.67110703 -103.92819305 147.90471405 -104.73435974 147.11509705 C-107.23696958 144.67037961 -109.76522167 142.25444032 -112.296875 139.83984375 C-114.7982642 137.42395149 -117.29382124 135.00232784 -119.78440857 132.57530212 C-121.33306618 131.06943193 -122.88870004 129.57068957 -124.45252991 128.08058167 C-133.93090345 118.94401829 -140.75535663 111.14752392 -141.109375 97.65234375 C-141.1633635 89.5720654 -138.18153759 84.61358938 -132.734375 78.77734375 C-123.77376673 71.6615666 -108.89755602 71.38350506 -97.921875 69.71484375 C-96.25967923 69.45693641 -94.59756918 69.19847595 -92.93554688 68.93945312 C-91.29951762 68.68594961 -89.66345032 68.43269156 -88.02734375 68.1796875 C-87.23343231 68.05653168 -86.43952087 67.93337585 -85.62155151 67.80648804 C-81.92637889 67.23982063 -78.23340794 66.7034693 -74.52197266 66.25439453 C-73.26819824 66.09825684 -72.01442383 65.94211914 -70.72265625 65.78125 C-69.63122314 65.65693604 -68.53979004 65.53262207 -67.4152832 65.40454102 C-64.4487507 64.71052207 -63.52438212 64.19133343 -61.734375 61.77734375 C-60.88421681 60.30563845 -60.09468695 58.7980768 -59.3515625 57.26953125 C-58.91102539 56.37363281 -58.47048828 55.47773438 -58.01660156 54.5546875 C-57.5522168 53.59691406 -57.08783203 52.63914062 -56.609375 51.65234375 C-55.62403672 49.64893171 -54.63703862 47.64633522 -53.6484375 45.64453125 C-53.15762695 44.6503418 -52.66681641 43.65615234 -52.16113281 42.63183594 C-49.81831469 37.94459613 -47.35626774 33.3235117 -44.87084961 28.71069336 C-43.13337596 25.47290517 -41.45295048 22.23034069 -39.90234375 18.8984375 C-35.41575398 9.28574963 -30.43795599 1.35408396 -20.15234375 -2.59375 C-12.71776574 -4.52746092 -6.61610376 -3.86807641 0 0 Z " fill="#020202" transform="translate(502.734375,420.22265625)"/>
<path d="M0 0 C22.4487345 18.65193889 34.62787829 41.43314942 41.1015625 69.625 C41.32972656 70.46160156 41.55789063 71.29820312 41.79296875 72.16015625 C44.11493732 81.36684283 43.1015625 89.75380169 43.1015625 99.625 C-26.8584375 99.625 -96.8184375 99.625 -168.8984375 99.625 C-168.8984375 67.00408635 -161.8318936 36.98324793 -138.87890625 12.7265625 C-136.7414284 10.52378035 -136.7414284 10.52378035 -134.4609375 7.5 C-100.17247668 -30.96998043 -38.75124205 -30.26482229 0 0 Z " fill="#FCFCFC" transform="translate(550.8984375,210.375)"/>
<path d="M0 0 C0.66 0 1.32 0 2 0 C2.63953613 1.51484985 2.63953613 1.51484985 3.29199219 3.06030273 C5.7547306 8.80215842 8.49736067 14.40912003 11.25048828 20.01586914 C11.91616383 21.37892682 12.57537136 22.74516257 13.22802734 24.11450195 C18.01142209 35.4732253 18.01142209 35.4732253 27 43 C32.69816739 44.235222 38.38642259 44.80504869 44.1875 45.3125 C46.52506517 45.54208875 48.86181685 45.77888073 51.19856262 46.01664734 C52.64591572 46.16118264 54.09390593 46.29951295 55.54252625 46.43074036 C58.77736005 46.72894916 61.87905191 47.07484934 65 48 C63.37060584 52.16282718 60.32217907 54.91439442 57.1875 57.97265625 C56.61797607 58.53697861 56.04845215 59.10130096 55.46166992 59.682724 C53.64581011 61.48081144 51.82339702 63.27205884 50 65.0625 C48.17748457 66.85736513 46.3564599 68.65367994 44.53833008 70.45298767 C43.40811145 71.57098518 42.27522989 72.68629856 41.1394043 73.79859924 C36.73459984 77.852874 36.73459984 77.852874 34.734375 83.26635742 C34.77673069 90.45424992 35.68678238 97.25395531 37 104.3125 C39.28497909 116.82584834 39.28497909 116.82584834 39 122 C32.25 120.25 32.25 120.25 30 118 C28.43511748 117.33014021 26.8481786 116.71099882 25.25 116.125 C21.07352283 114.51544075 17.71601789 112.50427293 14 110 C7.59227472 106.71219336 0.67531254 105.50746779 -6.3034668 107.73535156 C-12.61595143 110.35360929 -18.78996975 113.2035598 -24.9375 116.1875 C-26.77918913 117.07839322 -28.62160494 117.96778623 -30.46484375 118.85546875 C-31.265271 119.24371826 -32.06569824 119.63196777 -32.89038086 120.03198242 C-35 121 -35 121 -38 122 C-37.68214448 114.78796779 -37.12552599 108.02282509 -35.4375 101 C-34.38791293 96.24755499 -33.57090133 91.610866 -33.25 86.75 C-33.17265625 85.69296875 -33.0953125 84.6359375 -33.015625 83.546875 C-34.62930014 77.73252171 -38.81158681 74.19988829 -43 70 C-43.89380371 69.09733398 -44.78760742 68.19466797 -45.70849609 67.26464844 C-48.95926848 64.01330181 -52.2337037 60.78689212 -55.5222168 57.57373047 C-56.92661274 56.19931575 -58.32475066 54.81851548 -59.72265625 53.4375 C-60.54515869 52.63183594 -61.36766113 51.82617188 -62.21508789 50.99609375 C-64 49 -64 49 -64 47 C-62.32363636 46.79588318 -60.64719566 46.59238695 -58.97045898 46.39135742 C-57.4697166 46.21133434 -55.96923231 46.0291485 -54.46899414 45.8449707 C-50.21571285 45.33468135 -45.97219962 44.90572477 -41.69921875 44.59765625 C-40.82233398 44.52853027 -39.94544922 44.4594043 -39.04199219 44.38818359 C-37.34729462 44.25760228 -35.65119733 44.14374781 -33.95410156 44.04931641 C-28.00078277 43.56756599 -23.31925079 42.29372264 -19 38 C-16.19546966 33.82475961 -13.99551435 29.39535257 -11.8125 24.875 C-10.92788086 23.11542969 -10.92788086 23.11542969 -10.02539062 21.3203125 C-6.51418644 14.29009277 -3.19637014 7.17835854 0 0 Z " fill="#FBFBFB" transform="translate(489,484)"/>
<path d="M0 0 C0.66 0 1.32 0 2 0 C4.875 6.625 4.875 6.625 6 10 C5.01 10.495 5.01 10.495 4 11 C4 10.34 4 9.68 4 9 C3.01 9.33 2.02 9.66 1 10 C0.67 8.68 0.34 7.36 0 6 C-0.66 6 -1.32 6 -2 6 C-1.34 4.02 -0.68 2.04 0 0 Z " fill="#D7D7D7" transform="translate(489,484)"/>
<path d="M0 0 C0 3 0 3 -1 6 C-0.34 6.33 0.32 6.66 1 7 C-2.75 8.125 -2.75 8.125 -5 7 C-5.33 7.99 -5.66 8.98 -6 10 C-8.5625 11.1875 -8.5625 11.1875 -11 12 C-7.49102731 7.81576108 -3.91939465 3.80411834 0 0 Z " fill="#ECECEC" transform="translate(597,552)"/>
<path d="M0 0 C0.33 0.99 0.66 1.98 1 3 C-0.55444652 4.46691458 -2.11892175 5.92320641 -3.6875 7.375 C-4.55761719 8.18710937 -5.42773438 8.99921875 -6.32421875 9.8359375 C-8.86371107 11.88977509 -10.92025866 12.9900668 -14 14 C-13.04882866 12.8274869 -12.08882991 11.66212985 -11.125 10.5 C-10.59132813 9.8503125 -10.05765625 9.200625 -9.5078125 8.53125 C-9.01023437 8.0259375 -8.51265625 7.520625 -8 7 C-7.34 7 -6.68 7 -6 7 C-5.67 6.01 -5.34 5.02 -5 4 C-3.37667033 2.61423077 -1.71275535 1.27358732 0 0 Z " fill="#D2D2D2" transform="translate(585,564)"/>
<path d="M0 0 C0.66 0.99 1.32 1.98 2 3 C1.484375 3.495 0.96875 3.99 0.4375 4.5 C-2.32201483 7.33027162 -4.81205597 10.33409058 -7.31640625 13.390625 C-9 15 -9 15 -12 15 C-11.38511719 14.33613281 -10.77023437 13.67226563 -10.13671875 12.98828125 C-9.32847656 12.10527344 -8.52023437 11.22226562 -7.6875 10.3125 C-6.48673828 9.00732422 -6.48673828 9.00732422 -5.26171875 7.67578125 C-3.18451663 5.21829688 -1.56168424 2.80496684 0 0 Z " fill="#D4D4D4" transform="translate(762,806)"/>
<path d="M0 0 C0 0.66 0 1.32 0 2 C-0.66 2.66 -1.32 3.32 -2 4 C-2.33 4.66 -2.66 5.32 -3 6 C-3.5775 6.268125 -4.155 6.53625 -4.75 6.8125 C-7.72207612 8.38109573 -9.70251569 10.57487767 -12 13 C-12 10 -12 10 -9.8125 7.625 C-8.884375 6.75875 -7.95625 5.8925 -7 5 C-6.113125 4.071875 -5.22625 3.14375 -4.3125 2.1875 C-2 0 -2 0 0 0 Z " fill="#292929" transform="translate(394,178)"/>
<path d="M0 0 C1.14926266 0.95421808 2.29430541 1.91352045 3.4375 2.875 C4.07558594 3.40867187 4.71367187 3.94234375 5.37109375 4.4921875 C7 6 7 6 8 8 C6.25 8.75 6.25 8.75 4 9 C1.75 7.375 1.75 7.375 0 5 C-0.25 2.25 -0.25 2.25 0 0 Z " fill="#212121" transform="translate(446,554)"/>
<path d="M0 0 C0.33 0.99 0.66 1.98 1 3 C-1.64 5.97 -4.28 8.94 -7 12 C-7.66 11.67 -8.32 11.34 -9 11 C-6.03 7.37 -3.06 3.74 0 0 Z " fill="#373737" transform="translate(377,192)"/>
<path d="M0 0 C0.33 0.99 0.66 1.98 1 3 C1.78375 2.505 2.5675 2.01 3.375 1.5 C6 0 6 0 8 0 C8.33 0.99 8.66 1.98 9 3 C3.375 5 3.375 5 0 5 C0 3.35 0 1.7 0 0 Z " fill="#232323" transform="translate(450,603)"/>
<path d="M0 0 C0 3.96130371 -1.34877125 4.82914401 -4 7.6875 C-4.7425 8.49574219 -5.485 9.30398438 -6.25 10.13671875 C-6.8275 10.75160156 -7.405 11.36648438 -8 12 C-8.99 11.67 -9.98 11.34 -11 11 C-7.37 7.37 -3.74 3.74 0 0 Z " fill="#D2D2D2" transform="translate(609,540)"/>
<path d="M0 0 C1.65 0.33 3.3 0.66 5 1 C3.59794495 3.80411009 1.73272707 4.53830878 -1 6 C-2.32 6.33 -3.64 6.66 -5 7 C-3.35 4.69 -1.7 2.38 0 0 Z " fill="#DFDFDF" transform="translate(615,533)"/>
<path d="M0 0 C0.66 0.33 1.32 0.66 2 1 C1.34 2.65 0.68 4.3 0 6 C-0.598125 5.835 -1.19625 5.67 -1.8125 5.5 C-4.11344336 4.8885876 -4.11344336 4.8885876 -7 5 C-4.69 3.35 -2.38 1.7 0 0 Z " fill="#2D2D2D" transform="translate(403,170)"/>
<path d="M0 0 C0 0.66 0 1.32 0 2 C0.99 2.33 1.98 2.66 3 3 C2.34 4.32 1.68 5.64 1 7 C-0.65 5.02 -2.3 3.04 -4 1 C-2 0 -2 0 0 0 Z " fill="#1B1B1B" transform="translate(556,210)"/>
<path d="M0 0 C-1.0625 1.5625 -1.0625 1.5625 -3 3 C-6.6875 2.6875 -6.6875 2.6875 -10 2 C-6.80505194 -1.19494806 -4.22040044 -1.35655728 0 0 Z " fill="#1C1C1C" transform="translate(454,148)"/>
<path d="M0 0 C1.32 0.66 2.64 1.32 4 2 C3.34 3.32 2.68 4.64 2 6 C0.68 4.68 -0.64 3.36 -2 2 C-1.34 1.34 -0.68 0.68 0 0 Z " fill="#121212" transform="translate(379,544)"/>
<path d="M0 0 C0.66 0.33 1.32 0.66 2 1 C-0.64 3.64 -3.28 6.28 -6 9 C-6.99 8.67 -7.98 8.34 -9 8 C-6.03 5.36 -3.06 2.72 0 0 Z " fill="#C3C3C3" transform="translate(426,209)"/>
<path d="M0 0 C3.66881155 0.70554068 6.70450534 2.27735506 10 4 C10 4.99 10 5.98 10 7 C8.33073546 6.02526874 6.66464358 5.04510211 5 4.0625 C4.071875 3.51722656 3.14375 2.97195312 2.1875 2.41015625 C1.465625 1.94480469 0.74375 1.47945312 0 1 C0 0.67 0 0.34 0 0 Z " fill="#D8D8D8" transform="translate(558,161)"/>
<path d="M0 0 C0.66 0.33 1.32 0.66 2 1 C-0.84453943 3.31777287 -3.48875822 4.89118681 -7 6 C-7.66 5.67 -8.32 5.34 -9 5 C-7.54735962 4.1361871 -6.0876837 3.28419546 -4.625 2.4375 C-3.40683594 1.72400391 -3.40683594 1.72400391 -2.1640625 0.99609375 C-1.44992187 0.66738281 -0.73578125 0.33867187 0 0 Z " fill="#C8C8C8" transform="translate(446,197)"/>
<path d="M0 0 C2 2 2 2 2.125 4.625 C2.08375 5.40875 2.0425 6.1925 2 7 C1.01 7.495 1.01 7.495 0 8 C-0.66 6.02 -1.32 4.04 -2 2 C-1.34 2 -0.68 2 0 2 C0 1.34 0 0.68 0 0 Z " fill="#101010" transform="translate(508,513)"/>
<path d="M0 0 C1.32 1.32 2.64 2.64 4 4 C3.67 4.99 3.34 5.98 3 7 C1.35 5.02 -0.3 3.04 -2 1 C-1.34 0.67 -0.68 0.34 0 0 Z " fill="#2C2C2C" transform="translate(228,817)"/>
<path d="M0 0 C1.32 0.33 2.64 0.66 4 1 C1.03 3.475 1.03 3.475 -2 6 C-2.33 5.01 -2.66 4.02 -3 3 C-2.34 3 -1.68 3 -1 3 C-0.67 2.01 -0.34 1.02 0 0 Z " fill="#202020" transform="translate(592,553)"/>
<path d="M0 0 C0.66 0.33 1.32 0.66 2 1 C1.1875 3.9375 1.1875 3.9375 0 7 C-0.99 7.33 -1.98 7.66 -3 8 C-3.66 7.34 -4.32 6.68 -5 6 C-3.68 6 -2.36 6 -1 6 C-0.67 4.02 -0.34 2.04 0 0 Z " fill="#E2E2E2" transform="translate(441,477)"/>
<path d="M0 0 C0.99 0.33 1.98 0.66 3 1 C2.67 1.99 2.34 2.98 2 4 C2.66 4.33 3.32 4.66 4 5 C3.01 5.33 2.02 5.66 1 6 C0.01 4.68 -0.98 3.36 -2 2 C-1.34 1.34 -0.68 0.68 0 0 Z " fill="#ECECEC" transform="translate(594,184)"/>
<path d="M0 0 C0.33 0.99 0.66 1.98 1 3 C-3.75 7 -3.75 7 -6 7 C-4.77065985 3.31197956 -3.06140622 2.27643027 0 0 Z " fill="#DEDEDE" transform="translate(585,564)"/>
<path d="M0 0 C0 3 0 3 -2.5 5.6875 C-3.325 6.450625 -4.15 7.21375 -5 8 C-5.66 7.67 -6.32 7.34 -7 7 C-4.69 4.69 -2.38 2.38 0 0 Z " fill="#E6E6E6" transform="translate(593,556)"/>
<path d="M0 0 C0.33 0.99 0.66 1.98 1 3 C-0.40445835 5.2636564 -2.1967913 7.0208685 -4 9 C-4 5.00095031 -2.27413033 3.19799578 0 0 Z " fill="#353535" transform="translate(363,210)"/>
</svg>
